/* XPM */
static char *f1cbe5e5e6a0473ea32fbf228fd369c2l1OlRFM5kqZaPFxa[] = {
/* columns rows colors chars-per-pixel */
"32 32 2 1 ",
"  c #40342D",
"C c #fcfc00",
/* pixels */
"                                ",
"                                ",
"                                ",
"                                ",
"                                ",
"                                ",
"                                ",
"                                ",
"           CCCCCCCC             ",
"           CCCCCCCC             ",
"           CCCCCCCC             ",
"           CCCCCCCC             ",
"           CCCCCCCC             ",
"           CCCCCCCC             ",
"           CCCCCCCC             ",
"           CCCCCCCC             ",
"           CCCCCCCC             ",
"           CCCCCCCC             ",
"           CCCCCCCC             ",
"           CCCCCCCC             ",
"           CCCCCCCC             ",
"           CCCCCCCC             ",
"           CCCCCCCC             ",
"           CCCCCCCC             ",
"                                ",
"                                ",
"                                ",
"                                ",
"                                ",
"                                ",
"                                ",
"                                "
};
